<svg xmlns="http://www.w3.org/2000/svg" xmlns:xlink="http://www.w3.org/1999/xlink" width="500" zoomAndPan="magnify" viewBox="0 0 375 374.999991" height="500" preserveAspectRatio="xMidYMid meet" version="1.0"><defs><clipPath id="8c70455f49"><path d="M 6.167969 6.167969 L 369 6.167969 L 369 369 L 6.167969 369 Z M 6.167969 6.167969 " clip-rule="nonzero"/></clipPath></defs><g clip-path="url(#8c70455f49)"><path fill="#c0ff00" d="M 259.449219 204.742188 L 164.9375 269.046875 C 162.152344 270.945312 158.902344 271.871094 155.667969 271.816406 C 153.148438 271.761719 150.667969 271.121094 148.375 269.886719 C 143.132812 267.046875 139.910156 261.523438 140.023438 255.554688 L 142.542969 123.375 C 142.667969 117.417969 146.09375 112.007812 151.445312 109.371094 C 156.796875 106.734375 163.171875 107.304688 167.960938 110.839844 L 259.949219 178.726562 C 264.113281 181.785156 266.527344 186.691406 266.429688 191.859375 C 266.335938 197.03125 263.722656 201.835938 259.449219 204.742188 Z M 187.5 6.15625 C 87.351562 6.15625 6.148438 87.339844 6.148438 187.492188 C 6.148438 287.652344 87.351562 368.835938 187.5 368.835938 C 287.65625 368.835938 368.839844 287.652344 368.839844 187.492188 C 368.839844 87.339844 287.65625 6.15625 187.5 6.15625 " fill-opacity="1" fill-rule="nonzero"/></g><path stroke-linecap="butt" transform="matrix(0.75, 0, 0, 0.75, 144.872061, 59.325498)" fill="none" stroke-linejoin="miter" d="M -0.00129018 0.498295 L 7.316419 0.498295 " stroke="#c0ff00" stroke-width="1" stroke-opacity="1" stroke-miterlimit="4"/></svg>